<?xml version="1.0" encoding="UTF-8" standalone="no"?>
<svg
   version="1.0"
   width="308pt"
   height="55.085209pt"
   viewBox="0 0 308 55.085208"
   preserveAspectRatio="xMidYMid"
   id="svg37"
   sodipodi:docname="Madarail logo.svg"
   inkscape:version="1.4 (86a8ad7, 2024-10-11)"
   xmlns:inkscape="http://www.inkscape.org/namespaces/inkscape"
   xmlns:sodipodi="http://sodipodi.sourceforge.net/DTD/sodipodi-0.dtd"
   xmlns="http://www.w3.org/2000/svg"
   xmlns:svg="http://www.w3.org/2000/svg">
  <sodipodi:namedview
     id="namedview1"
     pagecolor="#ffffff"
     bordercolor="#000000"
     borderopacity="0.25"
     inkscape:showpageshadow="2"
     inkscape:pageopacity="0.0"
     inkscape:pagecheckerboard="0"
     inkscape:deskcolor="#d1d1d1"
     inkscape:document-units="pt"
     inkscape:zoom="1.7727273"
     inkscape:cx="205.33333"
     inkscape:cy="36.948718"
     inkscape:window-width="1366"
     inkscape:window-height="705"
     inkscape:window-x="-8"
     inkscape:window-y="-8"
     inkscape:window-maximized="1"
     inkscape:current-layer="g37" />
  <defs
     id="defs37" />
  <g
     transform="matrix(0.1,0,0,-0.1,0.5,92.08521)"
     fill="#000000"
     stroke="none"
     id="g37">
    <path
       d="m 2650,780 v -30 h 210 210 v 30 30 h -210 -210 z"
       id="path11"
       style="fill:#ff0000" />
    <path
       d="m 0,780 v -30 h 210 210 v 30 30 H 210 0 Z"
       id="path10"
       style="fill:#ff0000" />
    <path
       d="M 1155,599 C 848,583 607,551 360,493 277,474 92,415 37,390 L -5,370 h 112 c 95,0 129,5 218,30 256,71 556,114 925,130 532,24 1172,-30 1495,-127 71,-21 115,-27 210,-30 l 120,-3 -35,20 c -19,11 -75,33 -125,49 -389,126 -1125,194 -1760,160 z"
       id="path12"
       style="fill:#ff0000" />
    <path
       d="m 1007.478,-812.7021 c 0,-27.65 -18.55,-46.2 -46.2,-46.2 h -61.25 c -15.05,0 -19.95,3.15 -26.25,16.45 -4.9,-13.3 -9.45,-16.45 -25.2,-16.45 h -84.7 c -12.25,0 -15.05,0.35 -19.95,3.15 -4.9,2.45 -7.35,5.6 -11.9,13.3 l 4.2,-16.45 h -88.9 c 2.1,5.6 2.45,7.7 2.45,12.6 0,2.45 -0.35,6.3 -1.05,11.2 -0.35,2.8 -0.7,5.25 -1.4,7 l -25.9,100.8 c -3.5,13.65 -7,22.75 -10.85,30.1 -1.4,2.45 -2.8,4.55 -6.3,9.8 h 98.7 c -1.75,-5.6 -2.1,-7.7 -2.1,-12.25 0,-2.8 0.35,-6.65 0.7,-11.55 0.7,-2.8 1.05,-5.25 1.4,-7 l 23.1,-88.9 c 4.2,-15.75 7.7,-18.55 23.1,-18.55 h 21 c 8.4,0 14,4.2 14,10.5 0,1.4 -0.35,3.85 -1.4,7.35 l -1.05,5.6 -19.6,74.9 c -3.5,13.65 -6.65,22.75 -10.85,30.1 -1.4,2.45 -2.45,4.55 -6.3,9.8 h 99.05 c -2.1,-5.25 -2.45,-7.7 -2.45,-12.25 0,-2.8 0.35,-6.65 1.05,-11.55 0.35,-2.8 0.7,-5.25 1.4,-7 l 23.1,-90.3 c 3.5,-14 7.35,-17.15 20.3,-17.15 h 20.65 c 11.2,0 16.45,3.5 16.45,11.2 0,3.15 -0.35,5.6 -1.75,10.85 l -19.6,76.3 c -3.5,13.65 -7,22.75 -10.85,30.1 -1.4,2.45 -2.8,4.55 -6.3,9.8 h 98.7 c -1.75,-5.6 -2.45,-7.7 -2.45,-12.25 0,-2.8 0.35,-6.65 1.05,-11.55 0.35,-2.8 1.05,-5.25 1.4,-7 l 19.25,-74.9 2.45,-8.4 c 1.05,-3.15 1.05,-7 1.05,-11.2 z"
       id="text9"
       style="font-style:italic;font-weight:bold;font-size:350px;font-family:SerpentineEF;-inkscape-font-specification:'SerpentineEF, Bold Italic';fill:#ff0000;stroke-width:7.5"
       transform="scale(1,-1)"
       aria-label="m" />
    <path
       d="m 1260.5283,-816.2021 c 0,-16.1 -10.85,-32.9 -25.2,-39.2 -6.3,-2.8 -9.8,-3.5 -20.65,-3.5 h -157.15 l -18.2,39.9 c 6.3,-3.15 8.4,-3.85 15.75,-5.25 6.65,-1.05 11.55,-1.4 20.65,-1.4 h 83.3 c 14,0 18.2,2.1 18.2,9.45 0,8.05 -4.55,14 -10.85,14 h -5.6 -80.15 c -14.35,0 -17.85,0.35 -24.15,2.1 -3.85,1.05 -7.7,2.8 -10.85,4.55 -10.5,6.65 -16.1,16.1 -21,33.6 l -4.55,16.8 c -1.4,5.6 -2.1,11.55 -2.1,16.1 0,25.2 20.3,41.65 51.8,41.65 h 49.7 c 6.65,0 14.7,-1.4 20.3,-3.5 5.6,-2.45 8.75,-5.6 12.95,-13.3 v 3.85 c 0,5.6 0.35,7.7 2.1,12.95 h 82.95 c -2.1,-5.6 -2.45,-7.7 -2.45,-12.6 0,-2.45 0.35,-6.3 1.05,-11.2 0.35,-2.8 0.7,-5.25 1.4,-7 l 19.25,-74.2 c 2.1,-8.75 3.5,-17.85 3.5,-23.8 z m -94.5,46.9 -9.1,36.05 c -2.1,8.4 -2.45,9.1 -4.9,10.5 -2.1,1.4 -7.35,2.1 -14.35,2.1 h -20.65 c -12.6,0 -16.45,-2.45 -16.45,-10.15 0,-1.05 0,-1.75 0.35,-2.8 0,-0.35 0.35,-2.1 1.05,-4.2 l 4.55,-17.5 c 3.15,-12.6 5.25,-14 19.25,-14 z"
       id="text8"
       style="font-style:italic;font-weight:bold;font-size:350px;font-family:SerpentineEF;-inkscape-font-specification:'SerpentineEF, Bold Italic';fill:#ff0000;stroke-width:7.5"
       transform="scale(1,-1)"
       aria-label="a" />
    <path
       d="m 1541.9285,-920.8521 h -92.05 c 1.75,5.6 2.1,8.05 2.1,12.6 0,2.45 -0.35,6.3 -0.7,11.2 -0.7,3.5 -1.05,5.6 -1.4,7 l -12.25,47.95 c -5.6,-12.95 -12.25,-16.8 -28.7,-16.8 h -61.6 c -31.15,0 -48.3,12.6 -55.65,40.95 l -17.85,68.25 -2.1,8.05 c -1.05,4.2 -1.75,8.4 -1.75,12.6 0,12.25 3.85,21 12.25,29.05 10.5,9.8 19.6,12.6 40.25,12.6 h 47.6 c 9.8,0 13.65,-0.7 18.9,-3.15 5.6,-2.45 7.7,-4.55 12.25,-11.55 v 14.7 h 88.2 c -1.75,-5.6 -2.1,-7.7 -2.1,-12.6 0,-2.45 0.35,-6.3 0.7,-11.2 0.7,-3.15 1.05,-5.6 1.4,-7 z m -112.7,106.05 c 0,1.75 -0.35,4.2 -1.05,7 -0.7,3.85 -1.05,5.95 -1.4,6.65 l -16.8,65.1 c -3.15,12.6 -6.65,15.4 -20.3,15.4 h -19.25 c -12.6,0 -16.8,-2.45 -16.8,-9.8 0,-1.75 0.35,-3.85 1.05,-7 0.7,-1.4 1.05,-3.5 1.75,-5.6 l 15.4,-59.85 c 3.5,-14 4.9,-16.45 8.05,-19.6 3.15,-2.45 6.65,-3.15 13.65,-3.15 h 19.95 c 10.15,0 15.75,3.85 15.75,10.85 z"
       id="text7"
       style="font-style:italic;font-weight:bold;font-size:350px;font-family:SerpentineEF;-inkscape-font-specification:'SerpentineEF, Bold Italic';fill:#ff0000;stroke-width:7.5"
       transform="scale(1,-1)"
       aria-label="d" />
    <path
       d="m 1764.5285,-816.2021 c 0,-16.1 -10.85,-32.9 -25.2,-39.2 -6.3,-2.8 -9.8,-3.5 -20.65,-3.5 h -157.15 l -18.2,39.9 c 6.3,-3.15 8.4,-3.85 15.75,-5.25 6.65,-1.05 11.55,-1.4 20.65,-1.4 h 83.3 c 14,0 18.2,2.1 18.2,9.45 0,8.05 -4.55,14 -10.85,14 h -5.6 -80.15 c -14.35,0 -17.85,0.35 -24.15,2.1 -3.85,1.05 -7.7,2.8 -10.85,4.55 -10.5,6.65 -16.1,16.1 -21,33.6 l -4.55,16.8 c -1.4,5.6 -2.1,11.55 -2.1,16.1 0,25.2 20.3,41.65 51.8,41.65 h 49.7 c 6.65,0 14.7,-1.4 20.3,-3.5 5.6,-2.45 8.75,-5.6 12.95,-13.3 v 3.85 c 0,5.6 0.35,7.7 2.1,12.95 h 82.95 c -2.1,-5.6 -2.45,-7.7 -2.45,-12.6 0,-2.45 0.35,-6.3 1.05,-11.2 0.35,-2.8 0.7,-5.25 1.4,-7 l 19.25,-74.2 c 2.1,-8.75 3.5,-17.85 3.5,-23.8 z m -94.5,46.9 -9.1,36.05 c -2.1,8.4 -2.45,9.1 -4.9,10.5 -2.1,1.4 -7.35,2.1 -14.35,2.1 h -20.65 c -12.6,0 -16.45,-2.45 -16.45,-10.15 0,-1.05 0,-1.75 0.35,-2.8 0,-0.35 0.35,-2.1 1.05,-4.2 l 4.55,-17.5 c 3.15,-12.6 5.25,-14 19.25,-14 z"
       id="text6"
       style="font-style:italic;font-weight:bold;font-size:350px;font-family:SerpentineEF;-inkscape-font-specification:'SerpentineEF, Bold Italic';fill:#ff0000;stroke-width:7.5"
       transform="scale(1,-1)"
       aria-label="a" />
    <path
       d="m 1977.6786,-858.9021 h -47.6 c -12.95,0 -21.35,1.75 -28.7,5.95 -7.7,4.55 -12.25,9.8 -19.25,23.1 l 1.05,-9.1 0.35,-11.9 0.7,-8.05 h -78.75 c 2.1,5.6 2.45,7.7 2.45,12.6 0,2.45 -0.35,6.3 -1.05,11.2 -0.35,2.8 -0.7,5.25 -1.4,7 l -25.9,100.8 c -3.5,13.65 -7,22.75 -10.85,30.1 -1.4,2.45 -2.8,4.55 -6.3,9.8 h 98.7 c -1.75,-5.6 -2.1,-7.7 -2.1,-12.25 0,-2.8 0.35,-6.65 1.05,-11.55 0.35,-2.8 0.7,-5.25 1.05,-7 l 20.3,-78.75 c 2.8,-11.2 8.4,-14.7 23.45,-14.7 h 29.4 c 12.6,0 21.35,2.8 28.7,8.75 z"
       id="text5"
       style="font-style:italic;font-weight:bold;font-size:350px;font-family:SerpentineEF;-inkscape-font-specification:'SerpentineEF, Bold Italic';fill:#ff0000;stroke-width:7.5"
       transform="scale(1,-1)"
       aria-label="r" />
    <path
       d="m 2198.8789,-816.2021 c 0,-16.1 -10.85,-32.9 -25.2,-39.2 -6.3,-2.8 -9.8,-3.5 -20.65,-3.5 h -157.15 l -18.2,39.9 c 6.3,-3.15 8.4,-3.85 15.75,-5.25 6.65,-1.05 11.55,-1.4 20.65,-1.4 h 83.3 c 14,0 18.2,2.1 18.2,9.45 0,8.05 -4.55,14 -10.85,14 h -5.6 -80.15 c -14.35,0 -17.85,0.35 -24.15,2.1 -3.85,1.05 -7.7,2.8 -10.85,4.55 -10.5,6.65 -16.1,16.1 -21,33.6 l -4.55,16.8 c -1.4,5.6 -2.1,11.55 -2.1,16.1 0,25.2 20.3,41.65 51.8,41.65 h 49.7 c 6.65,0 14.7,-1.4 20.3,-3.5 5.6,-2.45 8.75,-5.6 12.95,-13.3 v 3.85 c 0,5.6 0.35,7.7 2.1,12.95 h 82.95 c -2.1,-5.6 -2.45,-7.7 -2.45,-12.6 0,-2.45 0.35,-6.3 1.05,-11.2 0.35,-2.8 0.7,-5.25 1.4,-7 l 19.25,-74.2 c 2.1,-8.75 3.5,-17.85 3.5,-23.8 z m -94.5,46.9 -9.1,36.05 c -2.1,8.4 -2.45,9.1 -4.9,10.5 -2.1,1.4 -7.35,2.1 -14.35,2.1 h -20.65 c -12.6,0 -16.45,-2.45 -16.45,-10.15 0,-1.05 0,-1.75 0.35,-2.8 0,-0.35 0.35,-2.1 1.05,-4.2 l 4.55,-17.5 c 3.15,-12.6 5.25,-14 19.25,-14 z"
       id="text4"
       style="font-style:italic;font-weight:bold;font-size:350px;font-family:SerpentineEF;-inkscape-font-specification:'SerpentineEF, Bold Italic';fill:#ff0000;stroke-width:7.5"
       transform="scale(1,-1)"
       aria-label="a" />
    <path
       d="m 2347.9791,-920.8521 h -84 l -11.9,45.5 h 84 z m -16.1,61.95 h -92.05 c 2.1,5.6 2.45,7.7 2.45,12.6 0,2.45 -0.35,6.3 -1.05,11.2 -0.35,2.8 -0.7,5.25 -1.4,7 l -25.9,100.8 c -3.5,13.65 -7,22.75 -10.85,30.1 -1.4,2.45 -2.8,4.55 -6.3,9.8 h 98.7 c -1.75,-5.6 -2.1,-7.7 -2.1,-12.25 0,-2.8 0.35,-6.65 1.05,-11.55 0.35,-2.8 0.7,-5.25 1.05,-7 z"
       id="text3"
       style="font-style:italic;font-weight:bold;font-size:350px;font-family:SerpentineEF;-inkscape-font-specification:'SerpentineEF, Bold Italic';fill:#ff0000;stroke-width:7.5"
       transform="scale(1,-1)"
       aria-label="i" />
    <path
       d="m 2468.3795,-920.8521 h -92.05 c 1.75,5.6 2.1,8.05 2.1,12.6 0,2.8 -0.35,6.3 -0.7,11.2 -0.7,3.15 -1.05,5.6 -1.4,7 l -42,162.75 c -3.5,13.65 -7,22.75 -10.85,30.1 -1.4,2.45 -2.8,4.55 -6.3,9.8 h 98.7 c -1.75,-5.6 -2.1,-7.7 -2.1,-12.25 0,-2.8 0.35,-6.65 0.7,-11.55 0.7,-2.8 1.05,-5.25 1.4,-7 z"
       id="text2"
       style="font-style:italic;font-weight:bold;font-size:350px;font-family:SerpentineEF;-inkscape-font-specification:'SerpentineEF, Bold Italic';fill:#ff0000;stroke-width:7.5"
       transform="scale(1,-1)"
       aria-label="l" />
  </g>
</svg>
